<svg id="Layer_3" data-name="Layer 3" xmlns="http://www.w3.org/2000/svg" viewBox="0 0 448.97 485.11"><defs><style>.cls-1{fill:#fff;}</style></defs><title>bus</title><path class="cls-1" d="M1210.59,1228.92H802.91a20.63,20.63,0,0,1-20.64-20.64V948.53C782.27,868.87,847.1,804,926.76,804h160c79.67,0,144.5,64.83,144.5,144.49v259.75a20.64,20.64,0,0,1-20.65,20.64Zm-387-41.29H1190V948.53a103.35,103.35,0,0,0-103.21-103.21h-160A103.33,103.33,0,0,0,823.55,948.53v239.1Z" transform="translate(-782.27 -804.04)"/><path class="cls-1" d="M886.32,1289.15c-38.78,0-61.92-12.6-61.92-33.68V1227.2a20.64,20.64,0,0,1,41.28,0v18.47a98,98,0,0,0,41.29,0V1227.2a20.64,20.64,0,0,1,41.28,0v28.27c0,21.08-23.14,33.68-61.93,33.68Z" transform="translate(-782.27 -804.04)"/><path class="cls-1" d="M1127.14,1289.15c-38.79,0-61.93-12.6-61.93-33.68V1227.2a20.64,20.64,0,0,1,41.28,0v18.47a98,98,0,0,0,41.29,0V1227.2a20.64,20.64,0,1,1,41.28,0v28.27c0,21.08-23.14,33.68-61.92,33.68Z" transform="translate(-782.27 -804.04)"/><path class="cls-1" d="M1106.54,905.56H907a20.65,20.65,0,1,1,0-41.29h199.57a20.65,20.65,0,0,1,0,41.29Z" transform="translate(-782.27 -804.04)"/><path class="cls-1" d="M908.7,1084.5a30.91,30.91,0,1,0,30.88,30.91,30.89,30.89,0,0,0-30.88-30.91Z" transform="translate(-782.27 -804.04)"/><path class="cls-1" d="M1104.8,1084.5a30.91,30.91,0,1,0,30.89,30.91,30.89,30.89,0,0,0-30.89-30.91Z" transform="translate(-782.27 -804.04)"/><path class="cls-1" d="M1148.67,1069.81H864.84a31,31,0,0,1-31-31V948.53a31,31,0,0,1,31-31h283.83a31,31,0,0,1,31,31v90.31a31,31,0,0,1-31,31ZM864.84,938.21a10.35,10.35,0,0,0-10.33,10.32v90.31a10.34,10.34,0,0,0,10.33,10.32h283.83a10.34,10.34,0,0,0,10.32-10.32V948.53a10.35,10.35,0,0,0-10.32-10.32Z" transform="translate(-782.27 -804.04)"/></svg>