<svg id="Layer_3" data-name="Layer 3" xmlns="http://www.w3.org/2000/svg" viewBox="0 0 353.8 232.4"><defs><style>.cls-1{fill:#fff;}</style></defs><title>graduation</title><path class="cls-1" d="M948.84,881.47a14.1,14.1,0,0,1-5.65-1.18L784.33,811.08a14.17,14.17,0,0,1,0-26l158.86-69.21a14.13,14.13,0,0,1,11.33,0l158.83,69.21a14.19,14.19,0,0,1,0,26L954.52,880.29a14.14,14.14,0,0,1-5.68,1.18ZM825.48,798.08l123.36,53.75,123.36-53.75L948.84,744.33,825.48,798.08Z" transform="translate(-775.8 -714.68)"/><path class="cls-1" d="M948.84,947.08c-43,0-86-12.89-124.27-38.67a14.16,14.16,0,0,1-6.29-11.77V821a14.18,14.18,0,0,1,28.36,0v67.9c63.66,39.6,140.75,39.6,204.41,0V821a14.18,14.18,0,0,1,28.35,0v75.61a14.22,14.22,0,0,1-6.25,11.77c-38.33,25.78-81.33,38.67-124.31,38.67Z" transform="translate(-775.8 -714.68)"/><path class="cls-1" d="M1115.43,908.47a7.09,7.09,0,0,1-7.09-7.09v-104a7.09,7.09,0,1,1,14.18,0v104a7.08,7.08,0,0,1-7.09,7.09Z" transform="translate(-775.8 -714.68)"/><path class="cls-1" d="M1115.43,915.56a14.18,14.18,0,0,1-14.18-14.18V851.76a14.18,14.18,0,1,1,28.36,0v49.62a14.18,14.18,0,0,1-14.18,14.18Z" transform="translate(-775.8 -714.68)"/></svg>