<svg id="Layer_3" data-name="Layer 3" xmlns="http://www.w3.org/2000/svg" viewBox="0 0 163.66 122.97"><defs><style>.cls-1{fill:#fff;}</style></defs><title>home</title><path class="cls-1" d="M180.91,718.16H140.69a6.29,6.29,0,0,1-6.29-6.29V672.23H114.25v39.64a6.29,6.29,0,0,1-6.29,6.29H67.74a6.29,6.29,0,0,1-6.29-6.29V646.56a6.29,6.29,0,0,1,12.58,0v59h27.64V665.94a6.28,6.28,0,0,1,6.29-6.28h32.73a6.29,6.29,0,0,1,6.29,6.28v39.64h27.64v-59a6.29,6.29,0,0,1,12.58,0v65.31a6.29,6.29,0,0,1-6.29,6.29Z" transform="translate(-42.5 -595.18)"/><path class="cls-1" d="M199.86,661.86a6.25,6.25,0,0,1-3.65-1.18L124.33,609.2,52.45,660.68a6.29,6.29,0,1,1-7.32-10.22l75.54-54.1a6.28,6.28,0,0,1,7.32,0l75.54,54.1a6.29,6.29,0,0,1-3.67,11.4Z" transform="translate(-42.5 -595.18)"/></svg>