<svg id="Isolation_Mode" data-name="Isolation Mode" xmlns="http://www.w3.org/2000/svg" viewBox="0 0 615.37 179.37"><defs><style>.cls-1{fill:#d1d3d4;}.cls-2{fill:#e6e7e8;}.cls-3{fill:#1baf5d;}.cls-4{fill:#8dc63f;}.cls-5{fill:#fff;}.cls-6{fill:#4c5b6a;}</style></defs><title>logo</title><path class="cls-1" d="M248.43,272.11h0a57.83,57.83,0,0,0,4.9-23.34c0-32.07-26-49.26-58.08-49.26s-58.08,17.19-58.08,49.26A57.82,57.82,0,0,0,142,272.11h0l.3.61q.91,2,2,4l50.83,102.17,51-102.07c.74-1.34,1.42-2.71,2.06-4.11Z" transform="translate(-105.83 -199.51)"/><path class="cls-2" d="M195.12,378.88l51-102.07c.74-1.34,1.42-2.71,2.06-4.11l.29-.59h0a57.83,57.83,0,0,0,4.9-23.34c0-32.07-26-49.26-58.08-49.26" transform="translate(-105.83 -199.51)"/><path class="cls-3" d="M195.12,249.44c0,25.53,1.58,46.23,27.11,46.23a46.23,46.23,0,1,0-25.84-84.56l4,9.42s4.39,5.31,11.89-1.09L213,224l-17.79,25.48" transform="translate(-105.83 -199.51)"/><path class="cls-3" d="M259.21,236.07l8.43,4.67,16.86,45.43s-48.64,12.35-62.27,9.5-13.37-14.2-13.37-14.2,56.23,21,50.35-45.4" transform="translate(-105.83 -199.51)"/><path class="cls-4" d="M195.21,249.44c0,25.53-1.58,46.23-27.11,46.23a46.23,46.23,0,1,1,25.84-84.56l-4,9.42s-4.39,5.31-11.89-1.09l-.72,4.52,17.8,25.48" transform="translate(-105.83 -199.51)"/><path class="cls-4" d="M195.21,249.44a27.11,27.11,0,1,1-27.11-27.1,27.11,27.11,0,0,1,27.11,27.1" transform="translate(-105.83 -199.51)"/><path class="cls-5" d="M168.1,227.19a22.26,22.26,0,1,0,22.25,22.25,22.28,22.28,0,0,0-22.25-22.25m0,54.21a32,32,0,1,1,32-32,32,32,0,0,1-32,32" transform="translate(-105.83 -199.51)"/><path class="cls-3" d="M249.35,249.44a27.11,27.11,0,1,1-27.1-27.1,27.11,27.11,0,0,1,27.1,27.1" transform="translate(-105.83 -199.51)"/><path class="cls-5" d="M222.24,227.19a22.26,22.26,0,1,0,22.26,22.25,22.27,22.27,0,0,0-22.26-22.25m0,54.21a32,32,0,1,1,32-32,32,32,0,0,1-32,32" transform="translate(-105.83 -199.51)"/><path d="M181.47,249.44a13.37,13.37,0,1,1-13.37-13.37,13.37,13.37,0,0,1,13.37,13.37" transform="translate(-105.83 -199.51)"/><path d="M235.26,249.44a13.37,13.37,0,1,1-13.37-13.37,13.36,13.36,0,0,1,13.37,13.37" transform="translate(-105.83 -199.51)"/><path class="cls-4" d="M131.12,236.07l-8.42,4.67-16.87,45.43s48.64,12.35,62.27,9.5,13.37-14.2,13.37-14.2-56.24,21-50.35-45.4" transform="translate(-105.83 -199.51)"/><path class="cls-6" d="M342.65,308.18a28.71,28.71,0,0,0,6.91-.78,26.61,26.61,0,0,0,6.67-2.74V266a30.56,30.56,0,0,0-5.49-1.86,27.56,27.56,0,0,0-6.24-.68,15.59,15.59,0,0,0-7.44,1.73,16.67,16.67,0,0,0-5.46,4.66,21.19,21.19,0,0,0-3.4,6.86A28.86,28.86,0,0,0,327,285a38.86,38.86,0,0,0,1,8.62,25.19,25.19,0,0,0,2.91,7.4,15.78,15.78,0,0,0,4.87,5.19,12.16,12.16,0,0,0,6.89,1.95m-.13-56.81a27.47,27.47,0,0,1,8.16,1,19.37,19.37,0,0,1,5.55,2.66V222.35h16v73.79c0,1.73.09,3.56.25,5.49s.44,3.9.8,5.9.85,4,1.42,6a39.39,39.39,0,0,0,2.11,5.61h-15a8.17,8.17,0,0,1-1.26-1.29c-.44-.54-.86-1.11-1.27-1.73a17.68,17.68,0,0,1-1.11-1.94,15.19,15.19,0,0,1-.8-1.95,24.07,24.07,0,0,1-7.69,6,22.27,22.27,0,0,1-9.91,2.13,28.71,28.71,0,0,1-12.51-2.65A27.32,27.32,0,0,1,318,310.4a32.19,32.19,0,0,1-5.83-11,45.47,45.47,0,0,1-2-13.77,37.61,37.61,0,0,1,2.22-12.84,33.73,33.73,0,0,1,6.42-10.93,31.84,31.84,0,0,1,10.19-7.63,31.08,31.08,0,0,1,13.58-2.87" transform="translate(-105.83 -199.51)"/><path class="cls-6" d="M403.69,252.42v45.69a12.08,12.08,0,0,0,.77,4.57,8.36,8.36,0,0,0,2.07,3.12,7.94,7.94,0,0,0,3.05,1.76,12.6,12.6,0,0,0,3.8.56,40.93,40.93,0,0,0,9.45-1.15,29.89,29.89,0,0,0,8.83-3.55v-51h16V307.5a39.72,39.72,0,0,0,.37,4.6c.25,2,.62,4.33,1.11,7H434c-.08-.24-.21-.71-.4-1.38s-.37-1.41-.55-2.2-.36-1.52-.53-2.22-.27-1.21-.31-1.54a32.3,32.3,0,0,1-4.72,3.42,37.49,37.49,0,0,1-5.5,2.72,35.37,35.37,0,0,1-5.77,1.76,26.8,26.8,0,0,1-5.55.62,29.32,29.32,0,0,1-11.09-1.82,18.21,18.21,0,0,1-7.07-5,18.74,18.74,0,0,1-3.77-7.41,36.63,36.63,0,0,1-1.1-9.14V252.42Z" transform="translate(-105.83 -199.51)"/><path class="cls-6" d="M462,222.35H478v35.13a36.85,36.85,0,0,1,3.06-2.22,21.82,21.82,0,0,1,3.83-2,26.36,26.36,0,0,1,4.69-1.39,27.54,27.54,0,0,1,5.53-.53A34.31,34.31,0,0,1,505.94,253a22.59,22.59,0,0,1,8.24,4.69,20.29,20.29,0,0,1,5.22,7.63,27.27,27.27,0,0,1,1.82,10.28v43.53H505.17V275.82q0-6.48-3.27-9.47t-9.08-3a28.45,28.45,0,0,0-3.61.22,26.71,26.71,0,0,0-3.55.68c-1.2.3-2.42.68-3.68,1.11s-2.58.94-4,1.51v52.24H462Z" transform="translate(-105.83 -199.51)"/><path class="cls-6" d="M565.1,309.66a11.44,11.44,0,0,0,7-2.22,17.23,17.23,0,0,0,4.87-5.87,30.22,30.22,0,0,0,2.84-8.21,46.62,46.62,0,0,0,.93-9.32,39.61,39.61,0,0,0-.84-8.31,20,20,0,0,0-2.74-6.85,14.34,14.34,0,0,0-4.94-4.67,14.64,14.64,0,0,0-7.35-1.72,13.07,13.07,0,0,0-6.88,1.79,14.76,14.76,0,0,0-5,4.91,24.06,24.06,0,0,0-3,7.41,40.08,40.08,0,0,0-1,9.29,39.39,39.39,0,0,0,.89,8.27,26.76,26.76,0,0,0,2.84,7.66,17.29,17.29,0,0,0,5,5.65,12.24,12.24,0,0,0,7.32,2.19m.55,11.11a38.17,38.17,0,0,1-14.41-2.53,28.46,28.46,0,0,1-10.53-7.19,30.93,30.93,0,0,1-6.45-11.24,45.91,45.91,0,0,1-2.2-14.66,40.69,40.69,0,0,1,2-13,30.21,30.21,0,0,1,6.18-10.74,29.23,29.23,0,0,1,10.4-7.35,36.85,36.85,0,0,1,14.73-2.72A35.71,35.71,0,0,1,580,254.09,27.34,27.34,0,0,1,590,261.53a30.68,30.68,0,0,1,5.84,11.11,48.37,48.37,0,0,1,1.88,13.68,40.27,40.27,0,0,1-2.19,13.37,32.38,32.38,0,0,1-6.36,11,30.16,30.16,0,0,1-10.13,7.41,32,32,0,0,1-13.43,2.71" transform="translate(-105.83 -199.51)"/><path class="cls-6" d="M639.16,309.66a11.39,11.39,0,0,0,7-2.22,17.14,17.14,0,0,0,4.88-5.87,30.56,30.56,0,0,0,2.84-8.21,46.62,46.62,0,0,0,.93-9.32,39.61,39.61,0,0,0-.84-8.31,20,20,0,0,0-2.74-6.85,14.43,14.43,0,0,0-4.94-4.67,14.64,14.64,0,0,0-7.35-1.72,13.07,13.07,0,0,0-6.88,1.79,14.88,14.88,0,0,0-5,4.91,24.3,24.3,0,0,0-3,7.41,40.07,40.07,0,0,0-1,9.29,39.42,39.42,0,0,0,.9,8.27,26.76,26.76,0,0,0,2.84,7.66,17.17,17.17,0,0,0,5,5.65,12.21,12.21,0,0,0,7.31,2.19m.56,11.11a38.26,38.26,0,0,1-14.42-2.53,28.46,28.46,0,0,1-10.53-7.19,31.22,31.22,0,0,1-6.45-11.24,46.2,46.2,0,0,1-2.19-14.66,40.69,40.69,0,0,1,2-13,30.34,30.34,0,0,1,6.17-10.74,29.36,29.36,0,0,1,10.41-7.35,36.79,36.79,0,0,1,14.72-2.72,35.76,35.76,0,0,1,14.58,2.72,27.42,27.42,0,0,1,10.06,7.44,30.51,30.51,0,0,1,5.83,11.11,48,48,0,0,1,1.89,13.68,40.27,40.27,0,0,1-2.19,13.37,32.71,32.71,0,0,1-6.36,11,30.16,30.16,0,0,1-10.13,7.41,32,32,0,0,1-13.43,2.71" transform="translate(-105.83 -199.51)"/><path class="cls-6" d="M675.63,255.76l9.82-3.34,4.2-17.22H701.5v17.22h16.36l-1.48,11.49H701.5v34a23.44,23.44,0,0,0,.4,4.75,9.29,9.29,0,0,0,1.15,3.09,4.13,4.13,0,0,0,1.85,1.66,6.14,6.14,0,0,0,2.53.5,24.56,24.56,0,0,0,4.47-.46,33.08,33.08,0,0,0,5.59-1.64l3.71,7.84a35.92,35.92,0,0,1-8.74,5.06,22.84,22.84,0,0,1-8.36,1.67A24.48,24.48,0,0,1,695,319a13.51,13.51,0,0,1-5.71-4.14,15.61,15.61,0,0,1-3-6.51,40.16,40.16,0,0,1-.83-8.58V263.91h-9.82Z" transform="translate(-105.83 -199.51)"/></svg>