<svg id="Layer_3" data-name="Layer 3" xmlns="http://www.w3.org/2000/svg" viewBox="0 0 542.29 539.42"><defs><style>.cls-1{fill:#fff;}</style></defs><title>music</title><path class="cls-1" d="M741.89,1202.17c-32.57,0-55.87-16.38-60.79-42.75-8-42.92,36.5-89.06,82.39-110.69,20.45-9.64,41-14.72,59.32-14.72,32.57,0,55.87,16.37,60.79,42.75,8,42.94-36.5,89.08-82.44,110.69-20.4,9.64-40.93,14.72-59.27,14.72Zm80.92-122.35c-11.5,0-25.63,3.67-39.81,10.33-37.67,17.78-59.18,48.4-56.86,60.84.76,4.25,10.25,5.37,15.75,5.37,11.49,0,25.59-3.67,39.77-10.33,37.75-17.78,59.27-48.38,56.94-60.84-.8-4.23-10.29-5.37-15.79-5.37Z" transform="translate(-680.16 -662.75)"/><polygon class="cls-1" points="204.39 418.08 158.58 418.08 158.58 104.97 204.39 104.97 204.39 418.08 204.39 418.08"/><path class="cls-1" d="M1079.72,1120.1c-32.57,0-55.83-16.37-60.75-42.76-8-42.9,36.5-89,82.4-110.67,20.44-9.64,41-14.72,59.36-14.72,32.56,0,55.87,16.39,60.79,42.77,8,42.89-36.55,89-82.49,110.67-20.4,9.64-40.93,14.71-59.31,14.71Zm81-122.34c-11.54,0-25.68,3.66-39.86,10.35-37.67,17.76-59.18,48.38-56.86,60.82.76,4.25,10.25,5.37,15.71,5.37,11.49,0,25.63-3.67,39.81-10.34,37.75-17.78,59.27-48.4,56.94-60.83-.8-4.26-10.28-5.37-15.74-5.37Z" transform="translate(-680.16 -662.75)"/><polygon class="cls-1" points="542.22 336.01 496.41 336.01 496.41 22.88 542.22 22.88 542.22 336.01 542.22 336.01"/><path class="cls-1" d="M861.64,896.68a22.86,22.86,0,0,1-22.9-22.9V767.71a22.89,22.89,0,0,1,17.49-22.25l337.83-82.09a23.18,23.18,0,0,1,19.59,4.25,23,23,0,0,1,8.72,18V791.71A22.87,22.87,0,0,1,1204.88,814L867.05,896a23.26,23.26,0,0,1-5.41.65Zm22.9-111v58.91l292-70.92V714.77l-292,71Z" transform="translate(-680.16 -662.75)"/><path class="cls-1" d="M741.89,1202.17c-32.57,0-55.87-16.38-60.79-42.75-8-42.92,36.5-89.06,82.39-110.69,20.45-9.64,41-14.72,59.32-14.72,32.57,0,55.87,16.37,60.79,42.75,8,42.94-36.5,89.08-82.44,110.69-20.4,9.64-40.93,14.72-59.27,14.72Zm80.92-122.35c-11.5,0-25.63,3.67-39.81,10.33-37.67,17.78-59.18,48.4-56.86,60.84.76,4.25,10.25,5.37,15.75,5.37,11.49,0,25.59-3.67,39.77-10.33,37.75-17.78,59.27-48.38,56.94-60.84-.8-4.23-10.29-5.37-15.79-5.37Z" transform="translate(-680.16 -662.75)"/><polygon class="cls-1" points="204.39 418.08 158.58 418.08 158.58 104.97 204.39 104.97 204.39 418.08 204.39 418.08"/><path class="cls-1" d="M1079.72,1120.1c-32.57,0-55.83-16.37-60.75-42.76-8-42.9,36.5-89,82.4-110.67,20.44-9.64,41-14.72,59.36-14.72,32.56,0,55.87,16.39,60.79,42.77,8,42.89-36.55,89-82.49,110.67-20.4,9.64-40.93,14.71-59.31,14.71Zm81-122.34c-11.54,0-25.68,3.66-39.86,10.35-37.67,17.76-59.18,48.38-56.86,60.82.76,4.25,10.25,5.37,15.71,5.37,11.49,0,25.63-3.67,39.81-10.34,37.75-17.78,59.27-48.4,56.94-60.83-.8-4.26-10.28-5.37-15.74-5.37Z" transform="translate(-680.16 -662.75)"/><polygon class="cls-1" points="542.22 336.01 496.41 336.01 496.41 22.88 542.22 22.88 542.22 336.01 542.22 336.01"/><path class="cls-1" d="M861.64,896.68a22.86,22.86,0,0,1-22.9-22.9V767.71a22.89,22.89,0,0,1,17.49-22.25l337.83-82.09a23.18,23.18,0,0,1,19.59,4.25,23,23,0,0,1,8.72,18V791.71A22.87,22.87,0,0,1,1204.88,814L867.05,896a23.26,23.26,0,0,1-5.41.65Zm22.9-111v58.91l292-70.92V714.77l-292,71Z" transform="translate(-680.16 -662.75)"/></svg>