<svg id="Layer_3" data-name="Layer 3" xmlns="http://www.w3.org/2000/svg" viewBox="0 0 284.39 351.97"><defs><style>.cls-1{fill:#fff;}</style></defs><title>user</title><path class="cls-1" d="M966.32,1170.77a15.59,15.59,0,0,1-6.66-1.5,211.77,211.77,0,0,0-35.29-13l8.18-30a244.62,244.62,0,0,1,26.17,8.69,146.38,146.38,0,0,0,10.61-55.06c0-70.18-48.39-127.27-107.87-127.27s-107.84,57.09-107.84,127.27a145.62,145.62,0,0,0,10.61,55,250.89,250.89,0,0,1,26.14-8.67l8.17,30a211.66,211.66,0,0,0-35.28,13,15.6,15.6,0,0,1-20.4-6.7,175.57,175.57,0,0,1-20.36-82.69c0-87.34,62.34-158.39,139-158.39s139,71,139,158.39a175.11,175.11,0,0,1-20.4,82.7,15.58,15.58,0,0,1-13.73,8.19Z" transform="translate(-719.28 -921.49)"/><path class="cls-1" d="M861.46,1188.83a66.12,66.12,0,0,1-7.84-.47c-41.15-4.55-72.16-43.3-85.07-106.31a136.72,136.72,0,0,1-2.31-19.28,7.73,7.73,0,0,1,7.75-8.22h42.67l7-50a7.78,7.78,0,0,1,15.41,0l7,50H857l2.34-23.48a7.78,7.78,0,0,1,7.72-7h0a7.77,7.77,0,0,1,7.75,7l2.37,23.48h71.79a7.8,7.8,0,0,1,7.78,8.22,137.69,137.69,0,0,1-2.34,19.22c-7,34.1-19,60.79-35.62,79.38l-.18.22c-1.22,1.36-2.49,2.62-3.74,3.86l-7-4,5.56,5.44c-2.7,2.56-4.41,4-6.14,5.33l-6.17-5,4.74,6.17a64.47,64.47,0,0,1-5.59,3.84s-1.25.87-1.31.9c-1.76,1.11-3.67,2.08-5.62,3.06-.18.07-1.73.89-1.88.95-1.46.72-3.41,1.46-5.38,2.18l-1.52.65c-1.49.5-2.86.87-4.26,1.25l-4-7,2.25,7.44c-.15.06-1.43.41-1.61.44-1.67.38-3.31.63-5,.87l-2.67.41c-2.07.23-4.16.3-6.26.36l-1.52.1Zm6-15.93,3.34,7.35-1.09-7.7c1.3-.18,2.55-.36,3.8-.64l3.67,7-2-7.51c2.16-.58,3.19-.85,4.22-1.2,2.89-1.12,4.32-1.66,5.68-2.32,2.77-1.43,4.23-2.16,5.66-3,2.67-1.75,4.13-2.74,5.59-3.85,2.64-2.13,4-3.27,5.44-4.56l1.64-1.62c1.49-1.48,2.55-2.56,3.62-3.71h0a.34.34,0,0,1,.12-.12c14.56-16.29,25.59-41.22,32-72.1.54-2.81,1-5.74,1.36-8.81H870.12a8.13,8.13,0,0,1-3.07-.62,8,8,0,0,1-3.07.62H839.27a7.75,7.75,0,0,1-7.69-6.72l-.21-1.5-.21,1.5a7.8,7.8,0,0,1-7.72,6.72h-41c.36,3.08.82,6,1.36,8.87,11.46,55.9,37.54,90.15,71.52,93.92a52.94,52.94,0,0,0,6.11.36c2.83-.12,4.44-.16,6.05-.36Z" transform="translate(-719.28 -921.49)"/><path class="cls-1" d="M750.4,1273.46H719.28c0-58,50.21-105.12,111.94-105.12v31.12c-44.56,0-80.82,33.19-80.82,74Z" transform="translate(-719.28 -921.49)"/><path class="cls-1" d="M1003.67,1273.46H972.55c0-40.81-36.26-74-80.82-74v-31.12c61.73,0,111.94,47.16,111.94,105.12Z" transform="translate(-719.28 -921.49)"/><path class="cls-1" d="M828.63,1081.72a9.12,9.12,0,1,0,9.12,9.12,9.13,9.13,0,0,0-9.12-9.12Z" transform="translate(-719.28 -921.49)"/><path class="cls-1" d="M894.28,1081.72a9.12,9.12,0,1,0,9.12,9.12,9.13,9.13,0,0,0-9.12-9.12Z" transform="translate(-719.28 -921.49)"/></svg>